<svg width="120" height="120" viewBox="0 0 120 120" xmlns="http://www.w3.org/2000/svg">
  <defs>
    <linearGradient id="g1" x1="0" y1="0" x2="1" y2="1">
      <stop offset="0%" stop-color="#0b8a6a"/>
      <stop offset="100%" stop-color="#0e604c"/>
    </linearGradient>
    <linearGradient id="g2" x1="0" y1="1" x2="1" y2="0">
      <stop offset="0%" stop-color="#ffe38f"/>
      <stop offset="100%" stop-color="#ffb347"/>
    </linearGradient>
  </defs>
  <rect x="6" y="6" width="108" height="108" rx="24" fill="url(#g1)"/>
  <path d="M32 36h40v8H40v40h-8V36z" fill="#eaf4f4"/>
  <path d="M48 84c12-10 20-20 26-32" stroke="url(#g2)" stroke-width="6" stroke-linecap="round" fill="none"/>
  <circle cx="78" cy="44" r="10" fill="#fff"/>
  <path d="M78 38c-2.2 0-4 1.4-4 3h3c0-.4.5-1 1-1 1 0 2 .6 2 1.5 0 1.2-1.3 1.6-2.6 2.1-1.5.5-3.4 1.2-3.4 3.4 0 1.8 1.5 3.2 3.4 3.4V55h2.2v-2.6c2.1-.3 3.4-1.7 3.8-3.5l-2.8-.8c-.2.8-.8 1.6-2 1.6-1 0-1.7-.6-1.7-1.4 0-1 .9-1.3 2.2-1.8 1.7-.6 3.8-1.4 3.8-3.8 0-2.3-1.9-3.7-4.3-3.7z" fill="#0b8a6a"/>
</svg>

